<mxfile host="app.diagrams.net" agent="Mozilla/5.0 (X11; Linux x86_64; rv:132.0) Gecko/20100101 Firefox/132.0" version="24.9.1">
  <diagram name="Page-1" id="0dNaZKkymbcP0CFHR1dc">
    <mxGraphModel dx="947" dy="1608" grid="1" gridSize="10" guides="1" tooltips="1" connect="1" arrows="1" fold="1" page="1" pageScale="1" pageWidth="850" pageHeight="1100" math="0" shadow="0">
      <root>
        <mxCell id="0" />
        <mxCell id="1" parent="0" />
        <mxCell id="FVtbrn1UM5h5sR3hIjfp-61" style="edgeStyle=none;rounded=0;orthogonalLoop=1;jettySize=auto;html=1;exitX=1;exitY=0.5;exitDx=0;exitDy=0;entryX=0;entryY=0.5;entryDx=0;entryDy=0;" parent="1" source="FVtbrn1UM5h5sR3hIjfp-44" target="FVtbrn1UM5h5sR3hIjfp-45" edge="1">
          <mxGeometry relative="1" as="geometry" />
        </mxCell>
        <mxCell id="FVtbrn1UM5h5sR3hIjfp-62" style="edgeStyle=none;rounded=0;orthogonalLoop=1;jettySize=auto;html=1;exitX=1;exitY=0.25;exitDx=0;exitDy=0;entryX=0;entryY=0.5;entryDx=0;entryDy=0;" parent="1" source="FVtbrn1UM5h5sR3hIjfp-44" target="FVtbrn1UM5h5sR3hIjfp-48" edge="1">
          <mxGeometry relative="1" as="geometry" />
        </mxCell>
        <mxCell id="FVtbrn1UM5h5sR3hIjfp-63" style="edgeStyle=none;rounded=0;orthogonalLoop=1;jettySize=auto;html=1;exitX=1;exitY=0;exitDx=0;exitDy=0;entryX=0.5;entryY=1;entryDx=0;entryDy=0;" parent="1" source="FVtbrn1UM5h5sR3hIjfp-44" target="FVtbrn1UM5h5sR3hIjfp-54" edge="1">
          <mxGeometry relative="1" as="geometry" />
        </mxCell>
        <mxCell id="FVtbrn1UM5h5sR3hIjfp-64" style="edgeStyle=none;rounded=0;orthogonalLoop=1;jettySize=auto;html=1;exitX=0;exitY=0;exitDx=0;exitDy=0;entryX=1;entryY=0.5;entryDx=0;entryDy=0;" parent="1" source="FVtbrn1UM5h5sR3hIjfp-44" target="FVtbrn1UM5h5sR3hIjfp-53" edge="1">
          <mxGeometry relative="1" as="geometry" />
        </mxCell>
        <mxCell id="FVtbrn1UM5h5sR3hIjfp-65" style="edgeStyle=none;rounded=0;orthogonalLoop=1;jettySize=auto;html=1;exitX=0;exitY=0.25;exitDx=0;exitDy=0;entryX=1;entryY=0.5;entryDx=0;entryDy=0;" parent="1" source="FVtbrn1UM5h5sR3hIjfp-44" target="FVtbrn1UM5h5sR3hIjfp-52" edge="1">
          <mxGeometry relative="1" as="geometry" />
        </mxCell>
        <mxCell id="FVtbrn1UM5h5sR3hIjfp-66" style="edgeStyle=none;rounded=0;orthogonalLoop=1;jettySize=auto;html=1;exitX=0;exitY=0.5;exitDx=0;exitDy=0;entryX=1;entryY=0.5;entryDx=0;entryDy=0;" parent="1" source="FVtbrn1UM5h5sR3hIjfp-44" target="FVtbrn1UM5h5sR3hIjfp-51" edge="1">
          <mxGeometry relative="1" as="geometry" />
        </mxCell>
        <mxCell id="FVtbrn1UM5h5sR3hIjfp-67" style="edgeStyle=none;rounded=0;orthogonalLoop=1;jettySize=auto;html=1;exitX=0;exitY=0.5;exitDx=0;exitDy=0;entryX=1;entryY=0.5;entryDx=0;entryDy=0;" parent="1" source="FVtbrn1UM5h5sR3hIjfp-44" target="FVtbrn1UM5h5sR3hIjfp-50" edge="1">
          <mxGeometry relative="1" as="geometry" />
        </mxCell>
        <mxCell id="FVtbrn1UM5h5sR3hIjfp-68" style="edgeStyle=none;rounded=0;orthogonalLoop=1;jettySize=auto;html=1;exitX=0;exitY=0.75;exitDx=0;exitDy=0;entryX=1;entryY=0.5;entryDx=0;entryDy=0;" parent="1" source="FVtbrn1UM5h5sR3hIjfp-44" target="FVtbrn1UM5h5sR3hIjfp-49" edge="1">
          <mxGeometry relative="1" as="geometry" />
        </mxCell>
        <mxCell id="FVtbrn1UM5h5sR3hIjfp-69" style="edgeStyle=none;rounded=0;orthogonalLoop=1;jettySize=auto;html=1;exitX=0;exitY=1;exitDx=0;exitDy=0;entryX=1;entryY=0.5;entryDx=0;entryDy=0;" parent="1" source="FVtbrn1UM5h5sR3hIjfp-44" target="FVtbrn1UM5h5sR3hIjfp-47" edge="1">
          <mxGeometry relative="1" as="geometry" />
        </mxCell>
        <mxCell id="FVtbrn1UM5h5sR3hIjfp-70" style="edgeStyle=none;rounded=0;orthogonalLoop=1;jettySize=auto;html=1;exitX=0;exitY=1;exitDx=0;exitDy=0;entryX=1;entryY=0.5;entryDx=0;entryDy=0;" parent="1" source="FVtbrn1UM5h5sR3hIjfp-44" target="FVtbrn1UM5h5sR3hIjfp-46" edge="1">
          <mxGeometry relative="1" as="geometry" />
        </mxCell>
        <mxCell id="FVtbrn1UM5h5sR3hIjfp-71" style="edgeStyle=none;rounded=0;orthogonalLoop=1;jettySize=auto;html=1;exitX=0.75;exitY=0;exitDx=0;exitDy=0;entryX=1;entryY=0.5;entryDx=0;entryDy=0;shape=link;width=-1.1111111111111125;" parent="1" source="FVtbrn1UM5h5sR3hIjfp-44" target="FVtbrn1UM5h5sR3hIjfp-55" edge="1">
          <mxGeometry relative="1" as="geometry" />
        </mxCell>
        <mxCell id="FVtbrn1UM5h5sR3hIjfp-72" style="edgeStyle=none;rounded=0;orthogonalLoop=1;jettySize=auto;html=1;exitX=0.25;exitY=0;exitDx=0;exitDy=0;entryX=0;entryY=0.5;entryDx=0;entryDy=0;shape=link;width=1.1111111111111107;" parent="1" source="FVtbrn1UM5h5sR3hIjfp-44" target="FVtbrn1UM5h5sR3hIjfp-55" edge="1">
          <mxGeometry relative="1" as="geometry" />
        </mxCell>
        <mxCell id="FVtbrn1UM5h5sR3hIjfp-117" style="edgeStyle=none;rounded=0;orthogonalLoop=1;jettySize=auto;html=1;exitX=1;exitY=0.75;exitDx=0;exitDy=0;entryX=0;entryY=0.5;entryDx=0;entryDy=0;shape=link;width=-0.76923076923077;" parent="1" source="FVtbrn1UM5h5sR3hIjfp-44" target="FVtbrn1UM5h5sR3hIjfp-116" edge="1">
          <mxGeometry relative="1" as="geometry" />
        </mxCell>
        <mxCell id="FVtbrn1UM5h5sR3hIjfp-124" style="edgeStyle=none;rounded=0;orthogonalLoop=1;jettySize=auto;html=1;exitX=1;exitY=1;exitDx=0;exitDy=0;entryX=0;entryY=0.5;entryDx=0;entryDy=0;shape=link;width=-0.3125;" parent="1" source="FVtbrn1UM5h5sR3hIjfp-44" target="FVtbrn1UM5h5sR3hIjfp-122" edge="1">
          <mxGeometry relative="1" as="geometry" />
        </mxCell>
        <mxCell id="FVtbrn1UM5h5sR3hIjfp-137" style="edgeStyle=none;rounded=0;orthogonalLoop=1;jettySize=auto;html=1;exitX=0.5;exitY=1;exitDx=0;exitDy=0;entryX=1;entryY=0.5;entryDx=0;entryDy=0;shape=link;width=-0.1999999999999993;" parent="1" source="FVtbrn1UM5h5sR3hIjfp-44" target="FVtbrn1UM5h5sR3hIjfp-134" edge="1">
          <mxGeometry relative="1" as="geometry" />
        </mxCell>
        <mxCell id="FVtbrn1UM5h5sR3hIjfp-142" style="edgeStyle=none;rounded=0;orthogonalLoop=1;jettySize=auto;html=1;exitX=0.25;exitY=1;exitDx=0;exitDy=0;entryX=0;entryY=0.5;entryDx=0;entryDy=0;shape=link;width=0.6382978723404253;" parent="1" source="FVtbrn1UM5h5sR3hIjfp-44" target="FVtbrn1UM5h5sR3hIjfp-141" edge="1">
          <mxGeometry relative="1" as="geometry" />
        </mxCell>
        <mxCell id="FVtbrn1UM5h5sR3hIjfp-44" value="Student" style="whiteSpace=wrap;html=1;align=center;" parent="1" vertex="1">
          <mxGeometry x="275" y="320" width="100" height="40" as="geometry" />
        </mxCell>
        <mxCell id="FVtbrn1UM5h5sR3hIjfp-45" value="Profile image" style="ellipse;whiteSpace=wrap;html=1;align=center;" parent="1" vertex="1">
          <mxGeometry x="505" y="270" width="100" height="40" as="geometry" />
        </mxCell>
        <mxCell id="FVtbrn1UM5h5sR3hIjfp-46" value="&lt;u&gt;ID&lt;/u&gt;" style="ellipse;whiteSpace=wrap;html=1;align=center;" parent="1" vertex="1">
          <mxGeometry x="65" y="410" width="100" height="40" as="geometry" />
        </mxCell>
        <mxCell id="FVtbrn1UM5h5sR3hIjfp-47" value="E-Mail" style="ellipse;whiteSpace=wrap;html=1;align=center;" parent="1" vertex="1">
          <mxGeometry x="55" y="370" width="100" height="40" as="geometry" />
        </mxCell>
        <mxCell id="FVtbrn1UM5h5sR3hIjfp-48" value="Date joined" style="ellipse;whiteSpace=wrap;html=1;align=center;" parent="1" vertex="1">
          <mxGeometry x="485" y="230" width="100" height="40" as="geometry" />
        </mxCell>
        <mxCell id="FVtbrn1UM5h5sR3hIjfp-49" value="Password" style="ellipse;whiteSpace=wrap;html=1;align=center;" parent="1" vertex="1">
          <mxGeometry x="55" y="330" width="100" height="40" as="geometry" />
        </mxCell>
        <mxCell id="FVtbrn1UM5h5sR3hIjfp-50" value="Birthday" style="ellipse;whiteSpace=wrap;html=1;align=center;" parent="1" vertex="1">
          <mxGeometry x="55" y="290" width="100" height="40" as="geometry" />
        </mxCell>
        <mxCell id="FVtbrn1UM5h5sR3hIjfp-51" value="Hobbys" style="ellipse;whiteSpace=wrap;html=1;align=center;" parent="1" vertex="1">
          <mxGeometry x="75" y="250" width="100" height="40" as="geometry" />
        </mxCell>
        <mxCell id="FVtbrn1UM5h5sR3hIjfp-52" value="Gender" style="ellipse;whiteSpace=wrap;html=1;align=center;" parent="1" vertex="1">
          <mxGeometry x="95" y="210" width="100" height="40" as="geometry" />
        </mxCell>
        <mxCell id="FVtbrn1UM5h5sR3hIjfp-53" value="Study programm" style="ellipse;whiteSpace=wrap;html=1;align=center;" parent="1" vertex="1">
          <mxGeometry x="115" y="170" width="100" height="40" as="geometry" />
        </mxCell>
        <mxCell id="FVtbrn1UM5h5sR3hIjfp-58" style="edgeStyle=none;rounded=0;orthogonalLoop=1;jettySize=auto;html=1;exitX=0.5;exitY=0;exitDx=0;exitDy=0;entryX=0.5;entryY=1;entryDx=0;entryDy=0;" parent="1" source="FVtbrn1UM5h5sR3hIjfp-54" target="FVtbrn1UM5h5sR3hIjfp-57" edge="1">
          <mxGeometry relative="1" as="geometry" />
        </mxCell>
        <mxCell id="FVtbrn1UM5h5sR3hIjfp-59" style="edgeStyle=none;rounded=0;orthogonalLoop=1;jettySize=auto;html=1;exitX=1;exitY=0;exitDx=0;exitDy=0;entryX=0.5;entryY=1;entryDx=0;entryDy=0;" parent="1" source="FVtbrn1UM5h5sR3hIjfp-54" target="FVtbrn1UM5h5sR3hIjfp-56" edge="1">
          <mxGeometry relative="1" as="geometry" />
        </mxCell>
        <mxCell id="FVtbrn1UM5h5sR3hIjfp-54" value="Name" style="ellipse;whiteSpace=wrap;html=1;align=center;" parent="1" vertex="1">
          <mxGeometry x="395" y="200" width="100" height="40" as="geometry" />
        </mxCell>
        <mxCell id="FVtbrn1UM5h5sR3hIjfp-114" style="edgeStyle=none;rounded=0;orthogonalLoop=1;jettySize=auto;html=1;exitX=1;exitY=0;exitDx=0;exitDy=0;entryX=0.5;entryY=1;entryDx=0;entryDy=0;" parent="1" source="FVtbrn1UM5h5sR3hIjfp-55" target="FVtbrn1UM5h5sR3hIjfp-112" edge="1">
          <mxGeometry relative="1" as="geometry" />
        </mxCell>
        <mxCell id="FVtbrn1UM5h5sR3hIjfp-115" style="edgeStyle=none;rounded=0;orthogonalLoop=1;jettySize=auto;html=1;exitX=0;exitY=0;exitDx=0;exitDy=0;entryX=0.5;entryY=1;entryDx=0;entryDy=0;" parent="1" source="FVtbrn1UM5h5sR3hIjfp-55" target="FVtbrn1UM5h5sR3hIjfp-113" edge="1">
          <mxGeometry relative="1" as="geometry" />
        </mxCell>
        <mxCell id="FVtbrn1UM5h5sR3hIjfp-55" value="Frendship" style="shape=rhombus;perimeter=rhombusPerimeter;whiteSpace=wrap;html=1;align=center;" parent="1" vertex="1">
          <mxGeometry x="265" y="90" width="120" height="60" as="geometry" />
        </mxCell>
        <mxCell id="FVtbrn1UM5h5sR3hIjfp-56" value="L.Name" style="ellipse;whiteSpace=wrap;html=1;align=center;" parent="1" vertex="1">
          <mxGeometry x="505" y="80" width="100" height="40" as="geometry" />
        </mxCell>
        <mxCell id="FVtbrn1UM5h5sR3hIjfp-57" value="F.Name" style="ellipse;whiteSpace=wrap;html=1;align=center;" parent="1" vertex="1">
          <mxGeometry x="405" y="60" width="100" height="40" as="geometry" />
        </mxCell>
        <mxCell id="FVtbrn1UM5h5sR3hIjfp-78" style="edgeStyle=none;rounded=0;orthogonalLoop=1;jettySize=auto;html=1;exitX=0.25;exitY=0;exitDx=0;exitDy=0;entryX=0.5;entryY=1;entryDx=0;entryDy=0;" parent="1" source="FVtbrn1UM5h5sR3hIjfp-73" target="FVtbrn1UM5h5sR3hIjfp-77" edge="1">
          <mxGeometry relative="1" as="geometry" />
        </mxCell>
        <mxCell id="FVtbrn1UM5h5sR3hIjfp-79" style="edgeStyle=none;rounded=0;orthogonalLoop=1;jettySize=auto;html=1;exitX=0.75;exitY=0;exitDx=0;exitDy=0;entryX=0;entryY=1;entryDx=0;entryDy=0;" parent="1" source="FVtbrn1UM5h5sR3hIjfp-73" target="FVtbrn1UM5h5sR3hIjfp-76" edge="1">
          <mxGeometry relative="1" as="geometry" />
        </mxCell>
        <mxCell id="FVtbrn1UM5h5sR3hIjfp-80" style="edgeStyle=none;rounded=0;orthogonalLoop=1;jettySize=auto;html=1;exitX=1;exitY=0.25;exitDx=0;exitDy=0;entryX=0;entryY=0.5;entryDx=0;entryDy=0;" parent="1" source="FVtbrn1UM5h5sR3hIjfp-73" target="FVtbrn1UM5h5sR3hIjfp-75" edge="1">
          <mxGeometry relative="1" as="geometry" />
        </mxCell>
        <mxCell id="FVtbrn1UM5h5sR3hIjfp-81" style="edgeStyle=none;rounded=0;orthogonalLoop=1;jettySize=auto;html=1;exitX=1;exitY=0.75;exitDx=0;exitDy=0;entryX=0;entryY=0.5;entryDx=0;entryDy=0;" parent="1" source="FVtbrn1UM5h5sR3hIjfp-73" target="FVtbrn1UM5h5sR3hIjfp-74" edge="1">
          <mxGeometry relative="1" as="geometry" />
        </mxCell>
        <mxCell id="FVtbrn1UM5h5sR3hIjfp-73" value="Study Grups" style="whiteSpace=wrap;html=1;align=center;" parent="1" vertex="1">
          <mxGeometry x="825" y="370" width="100" height="40" as="geometry" />
        </mxCell>
        <mxCell id="FVtbrn1UM5h5sR3hIjfp-74" value="Create Date" style="ellipse;whiteSpace=wrap;html=1;align=center;" parent="1" vertex="1">
          <mxGeometry x="1015" y="410" width="100" height="40" as="geometry" />
        </mxCell>
        <mxCell id="FVtbrn1UM5h5sR3hIjfp-75" value="Subject" style="ellipse;whiteSpace=wrap;html=1;align=center;" parent="1" vertex="1">
          <mxGeometry x="1005" y="330" width="100" height="40" as="geometry" />
        </mxCell>
        <mxCell id="FVtbrn1UM5h5sR3hIjfp-76" value="Name" style="ellipse;whiteSpace=wrap;html=1;align=center;" parent="1" vertex="1">
          <mxGeometry x="925" y="270" width="100" height="40" as="geometry" />
        </mxCell>
        <mxCell id="FVtbrn1UM5h5sR3hIjfp-77" value="&lt;u&gt;ID&lt;/u&gt;" style="ellipse;whiteSpace=wrap;html=1;align=center;" parent="1" vertex="1">
          <mxGeometry x="785" y="250" width="100" height="40" as="geometry" />
        </mxCell>
        <mxCell id="FVtbrn1UM5h5sR3hIjfp-91" style="edgeStyle=none;rounded=0;orthogonalLoop=1;jettySize=auto;html=1;exitX=1;exitY=0;exitDx=0;exitDy=0;entryX=0;entryY=0.5;entryDx=0;entryDy=0;" parent="1" source="FVtbrn1UM5h5sR3hIjfp-82" target="FVtbrn1UM5h5sR3hIjfp-88" edge="1">
          <mxGeometry relative="1" as="geometry" />
        </mxCell>
        <mxCell id="FVtbrn1UM5h5sR3hIjfp-92" style="edgeStyle=none;rounded=0;orthogonalLoop=1;jettySize=auto;html=1;exitX=1;exitY=0.5;exitDx=0;exitDy=0;" parent="1" source="FVtbrn1UM5h5sR3hIjfp-82" target="FVtbrn1UM5h5sR3hIjfp-87" edge="1">
          <mxGeometry relative="1" as="geometry" />
        </mxCell>
        <mxCell id="FVtbrn1UM5h5sR3hIjfp-93" style="edgeStyle=none;rounded=0;orthogonalLoop=1;jettySize=auto;html=1;exitX=1;exitY=0.75;exitDx=0;exitDy=0;" parent="1" source="FVtbrn1UM5h5sR3hIjfp-82" target="FVtbrn1UM5h5sR3hIjfp-86" edge="1">
          <mxGeometry relative="1" as="geometry" />
        </mxCell>
        <mxCell id="FVtbrn1UM5h5sR3hIjfp-94" style="edgeStyle=none;rounded=0;orthogonalLoop=1;jettySize=auto;html=1;exitX=1;exitY=1;exitDx=0;exitDy=0;" parent="1" source="FVtbrn1UM5h5sR3hIjfp-82" target="FVtbrn1UM5h5sR3hIjfp-85" edge="1">
          <mxGeometry relative="1" as="geometry" />
        </mxCell>
        <mxCell id="FVtbrn1UM5h5sR3hIjfp-95" style="edgeStyle=none;rounded=0;orthogonalLoop=1;jettySize=auto;html=1;exitX=0.75;exitY=1;exitDx=0;exitDy=0;entryX=0.5;entryY=0;entryDx=0;entryDy=0;" parent="1" source="FVtbrn1UM5h5sR3hIjfp-82" target="FVtbrn1UM5h5sR3hIjfp-84" edge="1">
          <mxGeometry relative="1" as="geometry" />
        </mxCell>
        <mxCell id="FVtbrn1UM5h5sR3hIjfp-96" style="edgeStyle=none;rounded=0;orthogonalLoop=1;jettySize=auto;html=1;exitX=0.25;exitY=1;exitDx=0;exitDy=0;entryX=0.5;entryY=0;entryDx=0;entryDy=0;" parent="1" source="FVtbrn1UM5h5sR3hIjfp-82" target="FVtbrn1UM5h5sR3hIjfp-83" edge="1">
          <mxGeometry relative="1" as="geometry" />
        </mxCell>
        <mxCell id="FVtbrn1UM5h5sR3hIjfp-82" value="Events" style="whiteSpace=wrap;html=1;align=center;" parent="1" vertex="1">
          <mxGeometry x="900" y="680" width="100" height="40" as="geometry" />
        </mxCell>
        <mxCell id="FVtbrn1UM5h5sR3hIjfp-83" value="Time" style="ellipse;whiteSpace=wrap;html=1;align=center;" parent="1" vertex="1">
          <mxGeometry x="810" y="780" width="100" height="40" as="geometry" />
        </mxCell>
        <mxCell id="FVtbrn1UM5h5sR3hIjfp-84" value="Date" style="ellipse;whiteSpace=wrap;html=1;align=center;" parent="1" vertex="1">
          <mxGeometry x="910" y="780" width="100" height="40" as="geometry" />
        </mxCell>
        <mxCell id="FVtbrn1UM5h5sR3hIjfp-97" style="edgeStyle=none;rounded=0;orthogonalLoop=1;jettySize=auto;html=1;exitX=0.5;exitY=1;exitDx=0;exitDy=0;entryX=0.5;entryY=0;entryDx=0;entryDy=0;" parent="1" source="FVtbrn1UM5h5sR3hIjfp-85" target="FVtbrn1UM5h5sR3hIjfp-90" edge="1">
          <mxGeometry relative="1" as="geometry" />
        </mxCell>
        <mxCell id="FVtbrn1UM5h5sR3hIjfp-98" style="edgeStyle=none;rounded=0;orthogonalLoop=1;jettySize=auto;html=1;exitX=1;exitY=1;exitDx=0;exitDy=0;entryX=0;entryY=0;entryDx=0;entryDy=0;" parent="1" source="FVtbrn1UM5h5sR3hIjfp-85" target="FVtbrn1UM5h5sR3hIjfp-89" edge="1">
          <mxGeometry relative="1" as="geometry" />
        </mxCell>
        <mxCell id="FVtbrn1UM5h5sR3hIjfp-85" value="Adress" style="ellipse;whiteSpace=wrap;html=1;align=center;" parent="1" vertex="1">
          <mxGeometry x="1020" y="780" width="100" height="40" as="geometry" />
        </mxCell>
        <mxCell id="FVtbrn1UM5h5sR3hIjfp-86" value="Descreption" style="ellipse;whiteSpace=wrap;html=1;align=center;" parent="1" vertex="1">
          <mxGeometry x="1080" y="740" width="100" height="40" as="geometry" />
        </mxCell>
        <mxCell id="FVtbrn1UM5h5sR3hIjfp-87" value="Name" style="ellipse;whiteSpace=wrap;html=1;align=center;" parent="1" vertex="1">
          <mxGeometry x="1090" y="690" width="100" height="40" as="geometry" />
        </mxCell>
        <mxCell id="FVtbrn1UM5h5sR3hIjfp-88" value="&lt;u&gt;ID&lt;/u&gt;" style="ellipse;whiteSpace=wrap;html=1;align=center;" parent="1" vertex="1">
          <mxGeometry x="1090" y="640" width="100" height="40" as="geometry" />
        </mxCell>
        <mxCell id="FVtbrn1UM5h5sR3hIjfp-89" value="Postal code" style="ellipse;whiteSpace=wrap;html=1;align=center;" parent="1" vertex="1">
          <mxGeometry x="1140" y="850" width="100" height="40" as="geometry" />
        </mxCell>
        <mxCell id="FVtbrn1UM5h5sR3hIjfp-90" value="street" style="ellipse;whiteSpace=wrap;html=1;align=center;" parent="1" vertex="1">
          <mxGeometry x="1030" y="880" width="100" height="40" as="geometry" />
        </mxCell>
        <mxCell id="FVtbrn1UM5h5sR3hIjfp-105" style="edgeStyle=none;rounded=0;orthogonalLoop=1;jettySize=auto;html=1;exitX=0;exitY=1;exitDx=0;exitDy=0;entryX=1;entryY=0;entryDx=0;entryDy=0;" parent="1" source="FVtbrn1UM5h5sR3hIjfp-99" target="FVtbrn1UM5h5sR3hIjfp-102" edge="1">
          <mxGeometry relative="1" as="geometry" />
        </mxCell>
        <mxCell id="FVtbrn1UM5h5sR3hIjfp-106" style="edgeStyle=none;rounded=0;orthogonalLoop=1;jettySize=auto;html=1;exitX=0;exitY=0.75;exitDx=0;exitDy=0;entryX=1;entryY=0.5;entryDx=0;entryDy=0;" parent="1" source="FVtbrn1UM5h5sR3hIjfp-99" target="FVtbrn1UM5h5sR3hIjfp-103" edge="1">
          <mxGeometry relative="1" as="geometry" />
        </mxCell>
        <mxCell id="FVtbrn1UM5h5sR3hIjfp-107" style="edgeStyle=none;rounded=0;orthogonalLoop=1;jettySize=auto;html=1;exitX=0;exitY=0.25;exitDx=0;exitDy=0;entryX=1;entryY=0.5;entryDx=0;entryDy=0;" parent="1" source="FVtbrn1UM5h5sR3hIjfp-99" target="FVtbrn1UM5h5sR3hIjfp-104" edge="1">
          <mxGeometry relative="1" as="geometry" />
        </mxCell>
        <mxCell id="FVtbrn1UM5h5sR3hIjfp-108" style="edgeStyle=none;rounded=0;orthogonalLoop=1;jettySize=auto;html=1;exitX=0.25;exitY=1;exitDx=0;exitDy=0;entryX=0.5;entryY=0;entryDx=0;entryDy=0;" parent="1" source="FVtbrn1UM5h5sR3hIjfp-99" target="FVtbrn1UM5h5sR3hIjfp-101" edge="1">
          <mxGeometry relative="1" as="geometry" />
        </mxCell>
        <mxCell id="FVtbrn1UM5h5sR3hIjfp-109" style="edgeStyle=none;rounded=0;orthogonalLoop=1;jettySize=auto;html=1;exitX=0.75;exitY=1;exitDx=0;exitDy=0;entryX=0.5;entryY=0;entryDx=0;entryDy=0;" parent="1" source="FVtbrn1UM5h5sR3hIjfp-99" target="FVtbrn1UM5h5sR3hIjfp-100" edge="1">
          <mxGeometry relative="1" as="geometry" />
        </mxCell>
        <mxCell id="FVtbrn1UM5h5sR3hIjfp-99" value="Post" style="whiteSpace=wrap;html=1;align=center;" parent="1" vertex="1">
          <mxGeometry x="320" y="730" width="100" height="40" as="geometry" />
        </mxCell>
        <mxCell id="FVtbrn1UM5h5sR3hIjfp-100" value="Date" style="ellipse;whiteSpace=wrap;html=1;align=center;" parent="1" vertex="1">
          <mxGeometry x="390" y="840" width="100" height="40" as="geometry" />
        </mxCell>
        <mxCell id="FVtbrn1UM5h5sR3hIjfp-101" value="Location" style="ellipse;whiteSpace=wrap;html=1;align=center;" parent="1" vertex="1">
          <mxGeometry x="280" y="840" width="100" height="40" as="geometry" />
        </mxCell>
        <mxCell id="FVtbrn1UM5h5sR3hIjfp-102" value="Image" style="ellipse;whiteSpace=wrap;html=1;align=center;" parent="1" vertex="1">
          <mxGeometry x="160" y="840" width="100" height="40" as="geometry" />
        </mxCell>
        <mxCell id="FVtbrn1UM5h5sR3hIjfp-103" value="Text" style="ellipse;whiteSpace=wrap;html=1;align=center;" parent="1" vertex="1">
          <mxGeometry x="160" y="780" width="100" height="40" as="geometry" />
        </mxCell>
        <mxCell id="FVtbrn1UM5h5sR3hIjfp-104" value="&lt;u&gt;&lt;span style=&quot;border-bottom: 1px dotted&quot;&gt;ID&lt;/span&gt;&lt;/u&gt;" style="ellipse;whiteSpace=wrap;html=1;align=center;" parent="1" vertex="1">
          <mxGeometry x="160" y="710" width="100" height="40" as="geometry" />
        </mxCell>
        <mxCell id="FVtbrn1UM5h5sR3hIjfp-110" value="N" style="text;html=1;align=center;verticalAlign=middle;resizable=0;points=[];autosize=1;strokeColor=none;fillColor=none;" parent="1" vertex="1">
          <mxGeometry x="370" y="90" width="30" height="30" as="geometry" />
        </mxCell>
        <mxCell id="FVtbrn1UM5h5sR3hIjfp-111" value="M" style="text;html=1;align=center;verticalAlign=middle;resizable=0;points=[];autosize=1;strokeColor=none;fillColor=none;" parent="1" vertex="1">
          <mxGeometry x="245" y="90" width="30" height="30" as="geometry" />
        </mxCell>
        <mxCell id="FVtbrn1UM5h5sR3hIjfp-112" value="Status" style="ellipse;whiteSpace=wrap;html=1;align=center;" parent="1" vertex="1">
          <mxGeometry x="325" y="-25" width="100" height="40" as="geometry" />
        </mxCell>
        <mxCell id="FVtbrn1UM5h5sR3hIjfp-113" value="Date" style="ellipse;whiteSpace=wrap;html=1;align=center;" parent="1" vertex="1">
          <mxGeometry x="185" y="-25" width="100" height="40" as="geometry" />
        </mxCell>
        <mxCell id="FVtbrn1UM5h5sR3hIjfp-118" style="edgeStyle=none;rounded=0;orthogonalLoop=1;jettySize=auto;html=1;exitX=1;exitY=0.5;exitDx=0;exitDy=0;entryX=0;entryY=0.25;entryDx=0;entryDy=0;shape=link;" parent="1" source="FVtbrn1UM5h5sR3hIjfp-116" target="FVtbrn1UM5h5sR3hIjfp-73" edge="1">
          <mxGeometry relative="1" as="geometry" />
        </mxCell>
        <mxCell id="FVtbrn1UM5h5sR3hIjfp-116" value="Create" style="shape=rhombus;perimeter=rhombusPerimeter;whiteSpace=wrap;html=1;align=center;" parent="1" vertex="1">
          <mxGeometry x="600" y="300" width="120" height="60" as="geometry" />
        </mxCell>
        <mxCell id="FVtbrn1UM5h5sR3hIjfp-119" value="1" style="text;html=1;align=center;verticalAlign=middle;resizable=0;points=[];autosize=1;strokeColor=none;fillColor=none;" parent="1" vertex="1">
          <mxGeometry x="585" y="300" width="30" height="30" as="geometry" />
        </mxCell>
        <mxCell id="FVtbrn1UM5h5sR3hIjfp-121" value="N" style="text;html=1;align=center;verticalAlign=middle;resizable=0;points=[];autosize=1;strokeColor=none;fillColor=none;" parent="1" vertex="1">
          <mxGeometry x="705" y="298" width="30" height="30" as="geometry" />
        </mxCell>
        <mxCell id="FVtbrn1UM5h5sR3hIjfp-123" style="edgeStyle=none;rounded=0;orthogonalLoop=1;jettySize=auto;html=1;exitX=1;exitY=0.5;exitDx=0;exitDy=0;entryX=0;entryY=0.75;entryDx=0;entryDy=0;shape=link;" parent="1" source="FVtbrn1UM5h5sR3hIjfp-122" target="FVtbrn1UM5h5sR3hIjfp-73" edge="1">
          <mxGeometry relative="1" as="geometry" />
        </mxCell>
        <mxCell id="FVtbrn1UM5h5sR3hIjfp-126" style="edgeStyle=none;rounded=0;orthogonalLoop=1;jettySize=auto;html=1;exitX=0.5;exitY=1;exitDx=0;exitDy=0;" parent="1" source="FVtbrn1UM5h5sR3hIjfp-122" target="FVtbrn1UM5h5sR3hIjfp-125" edge="1">
          <mxGeometry relative="1" as="geometry" />
        </mxCell>
        <mxCell id="FVtbrn1UM5h5sR3hIjfp-122" value="Join" style="shape=rhombus;perimeter=rhombusPerimeter;whiteSpace=wrap;html=1;align=center;" parent="1" vertex="1">
          <mxGeometry x="600" y="390" width="120" height="60" as="geometry" />
        </mxCell>
        <mxCell id="FVtbrn1UM5h5sR3hIjfp-125" value="Join Date" style="ellipse;whiteSpace=wrap;html=1;align=center;" parent="1" vertex="1">
          <mxGeometry x="610" y="470" width="100" height="40" as="geometry" />
        </mxCell>
        <mxCell id="FVtbrn1UM5h5sR3hIjfp-127" value="N" style="text;html=1;align=center;verticalAlign=middle;resizable=0;points=[];autosize=1;strokeColor=none;fillColor=none;" parent="1" vertex="1">
          <mxGeometry x="585" y="388" width="30" height="30" as="geometry" />
        </mxCell>
        <mxCell id="FVtbrn1UM5h5sR3hIjfp-128" value="M" style="text;html=1;align=center;verticalAlign=middle;resizable=0;points=[];autosize=1;strokeColor=none;fillColor=none;" parent="1" vertex="1">
          <mxGeometry x="705" y="388" width="30" height="30" as="geometry" />
        </mxCell>
        <mxCell id="FVtbrn1UM5h5sR3hIjfp-130" style="edgeStyle=none;rounded=0;orthogonalLoop=1;jettySize=auto;html=1;exitX=1;exitY=0.5;exitDx=0;exitDy=0;entryX=0;entryY=0;entryDx=0;entryDy=0;shape=link;" parent="1" source="FVtbrn1UM5h5sR3hIjfp-129" target="FVtbrn1UM5h5sR3hIjfp-82" edge="1">
          <mxGeometry relative="1" as="geometry" />
        </mxCell>
        <mxCell id="FVtbrn1UM5h5sR3hIjfp-131" style="edgeStyle=none;rounded=0;orthogonalLoop=1;jettySize=auto;html=1;exitX=0;exitY=0.5;exitDx=0;exitDy=0;entryX=0.75;entryY=1;entryDx=0;entryDy=0;shape=link;width=0;" parent="1" source="FVtbrn1UM5h5sR3hIjfp-129" target="FVtbrn1UM5h5sR3hIjfp-44" edge="1">
          <mxGeometry relative="1" as="geometry" />
        </mxCell>
        <mxCell id="FVtbrn1UM5h5sR3hIjfp-129" value="Create" style="shape=rhombus;perimeter=rhombusPerimeter;whiteSpace=wrap;html=1;align=center;" parent="1" vertex="1">
          <mxGeometry x="585" y="530" width="120" height="60" as="geometry" />
        </mxCell>
        <mxCell id="FVtbrn1UM5h5sR3hIjfp-132" value="1" style="text;html=1;align=center;verticalAlign=middle;resizable=0;points=[];autosize=1;strokeColor=none;fillColor=none;" parent="1" vertex="1">
          <mxGeometry x="570" y="520" width="30" height="30" as="geometry" />
        </mxCell>
        <mxCell id="FVtbrn1UM5h5sR3hIjfp-133" value="N" style="text;html=1;align=center;verticalAlign=middle;resizable=0;points=[];autosize=1;strokeColor=none;fillColor=none;" parent="1" vertex="1">
          <mxGeometry x="705" y="528" width="30" height="30" as="geometry" />
        </mxCell>
        <mxCell id="FVtbrn1UM5h5sR3hIjfp-138" style="edgeStyle=none;rounded=0;orthogonalLoop=1;jettySize=auto;html=1;exitX=0;exitY=0.5;exitDx=0;exitDy=0;entryX=1;entryY=0;entryDx=0;entryDy=0;shape=link;" parent="1" source="FVtbrn1UM5h5sR3hIjfp-134" target="FVtbrn1UM5h5sR3hIjfp-99" edge="1">
          <mxGeometry relative="1" as="geometry" />
        </mxCell>
        <mxCell id="FVtbrn1UM5h5sR3hIjfp-134" value="Create " style="shape=rhombus;perimeter=rhombusPerimeter;whiteSpace=wrap;html=1;align=center;" parent="1" vertex="1">
          <mxGeometry x="340" y="540" width="120" height="60" as="geometry" />
        </mxCell>
        <mxCell id="FVtbrn1UM5h5sR3hIjfp-139" value="1" style="text;html=1;align=center;verticalAlign=middle;resizable=0;points=[];autosize=1;strokeColor=none;fillColor=none;" parent="1" vertex="1">
          <mxGeometry x="445" y="538" width="30" height="30" as="geometry" />
        </mxCell>
        <mxCell id="FVtbrn1UM5h5sR3hIjfp-140" value="N" style="text;html=1;align=center;verticalAlign=middle;resizable=0;points=[];autosize=1;strokeColor=none;fillColor=none;" parent="1" vertex="1">
          <mxGeometry x="320" y="540" width="30" height="30" as="geometry" />
        </mxCell>
        <mxCell id="FVtbrn1UM5h5sR3hIjfp-147" value="" style="edgeStyle=none;rounded=0;orthogonalLoop=1;jettySize=auto;html=1;" parent="1" source="FVtbrn1UM5h5sR3hIjfp-141" target="FVtbrn1UM5h5sR3hIjfp-146" edge="1">
          <mxGeometry relative="1" as="geometry" />
        </mxCell>
        <mxCell id="FVtbrn1UM5h5sR3hIjfp-141" value="Comment" style="shape=rhombus;perimeter=rhombusPerimeter;whiteSpace=wrap;html=1;align=center;" parent="1" vertex="1">
          <mxGeometry x="195" y="538" width="120" height="60" as="geometry" />
        </mxCell>
        <mxCell id="FVtbrn1UM5h5sR3hIjfp-143" style="edgeStyle=none;rounded=0;orthogonalLoop=1;jettySize=auto;html=1;exitX=1;exitY=0.5;exitDx=0;exitDy=0;entryX=0.055;entryY=0.025;entryDx=0;entryDy=0;entryPerimeter=0;shape=link;width=-0.6382978723404253;" parent="1" source="FVtbrn1UM5h5sR3hIjfp-141" target="FVtbrn1UM5h5sR3hIjfp-99" edge="1">
          <mxGeometry relative="1" as="geometry" />
        </mxCell>
        <mxCell id="FVtbrn1UM5h5sR3hIjfp-144" value="M" style="text;html=1;align=center;verticalAlign=middle;resizable=0;points=[];autosize=1;strokeColor=none;fillColor=none;" parent="1" vertex="1">
          <mxGeometry x="295" y="538" width="30" height="30" as="geometry" />
        </mxCell>
        <mxCell id="FVtbrn1UM5h5sR3hIjfp-145" value="1" style="text;html=1;align=center;verticalAlign=middle;resizable=0;points=[];autosize=1;strokeColor=none;fillColor=none;" parent="1" vertex="1">
          <mxGeometry x="165" y="540" width="30" height="30" as="geometry" />
        </mxCell>
        <mxCell id="FVtbrn1UM5h5sR3hIjfp-146" value="Text" style="ellipse;whiteSpace=wrap;html=1;align=center;" parent="1" vertex="1">
          <mxGeometry x="130" y="620" width="100" height="40" as="geometry" />
        </mxCell>
      </root>
    </mxGraphModel>
  </diagram>
</mxfile>
